{
  "accessors": [
    {
      "bufferView": 2,
      "componentType": 5126,
      "count": 2922,
      "max": [
        4.9292001724243164,
        5.1242799758911133,
        1.608430027961731
      ],
      "min": [
        -4.1196699142456055,
        -6.2403898239135742,
        -0.64291000366210938
      ],
      "type": "VEC3"
    },
    {
      "bufferView": 2,
      "byteOffset": 35064,
      "componentType": 5126,
      "count": 2922,
      "max": [
        0.99996072053909302,
        0.99661463499069214,
        0.99889200925827026
      ],
      "min": [
        -0.99674642086029053,
        -0.98964023590087891,
        -0.99889200925827026
      ],
      "type": "VEC3"
    },
    {
      "bufferView": 3,
      "componentType": 5126,
      "count": 2922,
      "max": [
        0.99989044666290283,
        0.99901944398880005,
        0.99920797348022461,
        1
      ],
      "min": [
        -0.99867993593215942,
        -0.89190304279327393,
        -0.9990801215171814,
        -1
      ],
      "type": "VEC4"
    },
    {
      "bufferView": 2,
      "byteOffset": 70128,
      "componentType": 5126,
      "count": 2922,
      "max": [
        1,
        1,
        1
      ],
      "min": [
        1,
        1,
        1
      ],
      "type": "VEC3"
    },
    {
      "bufferView": 1,
      "componentType": 5126,
      "count": 2922,
      "max": [
        0.9997900128364563,
        0.98574000597000122
      ],
      "min": [
        0.00020999999833293259,
        0.062710002064704895
      ],
      "type": "VEC2"
    },
    {
      "bufferView": 0,
      "componentType": 5125,
      "count": 4032,
      "max": [
        2921
      ],
      "min": [
        0
      ],
      "type": "SCALAR"
    }
  ],
  "asset": {
    "extras": {
      "author": "EduardoAceves (https://sketchfab.com/EduardoAceves)",
      "license": "CC-BY-4.0 (http://creativecommons.org/licenses/by/4.0/)",
      "source": "https://sketchfab.com/3d-models/fox-f25a052be431440fad238bcf736122e5",
      "title": "Fox"
    },
    "generator": "Sketchfab-4.52.1",
    "version": "2.0"
  },
  "bufferViews": [
    {
      "buffer": 0,
      "byteLength": 16128,
      "byteOffset": 0,
      "name": "floatBufferViews",
      "target": 34963
    },
    {
      "buffer": 0,
      "byteLength": 23376,
      "byteOffset": 16128,
      "byteStride": 8,
      "name": "floatBufferViews",
      "target": 34962
    },
    {
      "buffer": 0,
      "byteLength": 105192,
      "byteOffset": 39504,
      "byteStride": 12,
      "name": "floatBufferViews",
      "target": 34962
    },
    {
      "buffer": 0,
      "byteLength": 46752,
      "byteOffset": 144696,
      "byteStride": 16,
      "name": "floatBufferViews",
      "target": 34962
    }
  ],
  "buffers": [
    {
      "byteLength": 191448,
      "uri": "scene.bin"
    }
  ],
  "images": [
    {
      "uri": "textures/Fox.material_baseColor.png"
    }
  ],
  "materials": [
    {
      "doubleSided": false,
      "name": "Fox.material",
      "pbrMetallicRoughness": {
        "baseColorFactor": [
          1,
          1,
          1,
          1
        ],
        "baseColorTexture": {
          "index": 0,
          "texCoord": 0
        },
        "metallicFactor": 0,
        "roughnessFactor": 0
      }
    }
  ],
  "meshes": [
    {
      "name": "Plane_0",
      "primitives": [
        {
          "attributes": {
            "COLOR_0": 3,
            "NORMAL": 1,
            "POSITION": 0,
            "TANGENT": 2,
            "TEXCOORD_0": 4
          },
          "indices": 5,
          "material": 0,
          "mode": 4
        }
      ]
    }
  ],
  "nodes": [
    {
      "children": [
        1
      ],
      "name": "RootNode (gltf orientation matrix)",
      "rotation": [
        -0.70710678118654746,
        -0,
        -0,
        0.70710678118654757
      ]
    },
    {
      "children": [
        2
      ],
      "name": "RootNode (model correction matrix)"
    },
    {
      "children": [
        3
      ],
      "name": "Root"
    },
    {
      "children": [
        4
      ],
      "matrix": [
        0,
        0,
        -0.74963000000000013,
        0,
        -0,
        0.74963000000000013,
        -0,
        0,
        0.74963000000000013,
        0,
        0,
        0,
        -0.36730000000000007,
        1.1726300000000001,
        -0.020320000000000005,
        1
      ],
      "name": "Plane"
    },
    {
      "mesh": 0,
      "name": "Plane_0"
    }
  ],
  "samplers": [
    {
      "magFilter": 9729,
      "minFilter": 9987,
      "wrapS": 10497,
      "wrapT": 10497
    }
  ],
  "scene": 0,
  "scenes": [
    {
      "name": "OSG_Scene",
      "nodes": [
        0
      ]
    }
  ],
  "textures": [
    {
      "sampler": 0,
      "source": 0
    }
  ]
}

